<svg xmlns="http://www.w3.org/2000/svg" xmlns:xlink="http://www.w3.org/1999/xlink" width="500" zoomAndPan="magnify" viewBox="0 0 375 374.999991" height="500" preserveAspectRatio="xMidYMid meet" version="1.0"><defs><g/><clipPath id="id1"><path d="M 36.910156 180.617188 L 337.660156 180.617188 L 337.660156 203.867188 L 36.910156 203.867188 Z M 36.910156 180.617188 " clip-rule="nonzero"/></clipPath></defs><g fill="#ff5757" fill-opacity="1"><g transform="translate(72.847329, 244.499984)"><g><path d="M 95.59375 -118.6875 L 95.59375 -45.429688 C 95.59375 -9.273438 77.230469 -1.324219 55.652344 -1.324219 C 23.660156 -1.324219 21.957031 -30.285156 21.957031 -43.726562 L 21.957031 -118.6875 L 8.519531 -118.6875 L 8.519531 -43.726562 C 8.519531 -5.109375 30.476562 3.597656 52.8125 3.597656 C 83.097656 3.597656 98.8125 -12.492188 98.8125 -43.726562 L 98.8125 -118.6875 Z M 95.59375 -118.6875 "/></g></g></g><g fill="#f6830f" fill-opacity="1"><g transform="translate(187.200124, 244.499984)"><g><path d="M 58.113281 -118.6875 L 9.085938 -118.6875 L 9.085938 0.1875 L 49.214844 0.1875 C 54.894531 0.1875 118.308594 3.027344 118.308594 -61.140625 C 118.308594 -113.007812 80.070312 -118.6875 58.113281 -118.6875 Z M 48.835938 -2.839844 L 22.527344 -2.839844 L 22.527344 -115.46875 L 50.917969 -115.46875 C 72.5 -115.46875 104.300781 -107.519531 104.300781 -61.140625 C 104.300781 -14.953125 74.769531 -2.839844 48.835938 -2.839844 Z M 48.835938 -2.839844 "/></g></g></g><g clip-path="url(#id1)"><path fill="#1e1d1d" d="M 36.980469 180.617188 L 337.589844 180.617188 L 337.589844 203.867188 L 36.980469 203.867188 L 36.980469 180.617188 " fill-opacity="1" fill-rule="nonzero"/></g><g fill="#ffffff" fill-opacity="1"><g transform="translate(134.412535, 196.592685)"><g><path d="M 8.351562 -10.371094 L 8.351562 -3.96875 C 8.351562 -0.808594 6.75 -0.117188 4.863281 -0.117188 C 2.066406 -0.117188 1.917969 -2.648438 1.917969 -3.820312 L 1.917969 -10.371094 L 0.746094 -10.371094 L 0.746094 -3.820312 C 0.746094 -0.445312 2.664062 0.3125 4.613281 0.3125 C 7.261719 0.3125 8.632812 -1.089844 8.632812 -3.820312 L 8.632812 -10.371094 Z M 8.351562 -10.371094 "/></g></g></g><g fill="#ffffff" fill-opacity="1"><g transform="translate(154.504677, 196.592685)"><g><path d="M 8.121094 -10.371094 L 0.546875 -10.371094 L 0.546875 -10.105469 L 3.738281 -10.105469 L 3.738281 0.015625 L 4.929688 0.015625 L 4.929688 -10.105469 L 8.121094 -10.105469 Z M 8.121094 -10.371094 "/></g></g></g><g fill="#ffffff" fill-opacity="1"><g transform="translate(173.836411, 196.592685)"><g><path d="M 6.832031 -10.371094 L 6.832031 -5.542969 L 1.96875 -5.542969 L 1.96875 -10.371094 L 0.792969 -10.371094 L 0.792969 0.015625 L 1.96875 0.015625 L 1.96875 -5.277344 L 6.832031 -5.277344 L 6.832031 0.015625 L 8.023438 0.015625 L 8.023438 -10.371094 Z M 6.832031 -10.371094 "/></g></g></g><g fill="#ffffff" fill-opacity="1"><g transform="translate(193.366515, 196.592685)"><g><path d="M 0.578125 -0.761719 L 0.578125 -0.378906 C 0.578125 -0.378906 1.589844 0.429688 3.375 0.429688 C 5.160156 0.429688 6.863281 -0.808594 6.863281 -2.648438 C 6.863281 -6.351562 1.554688 -5.261719 1.554688 -8.269531 C 1.554688 -9.445312 2.367188 -10.402344 3.789062 -10.402344 C 5.195312 -10.402344 6.105469 -9.726562 6.105469 -9.726562 L 6.085938 -10.074219 C 6.085938 -10.074219 5.09375 -10.683594 3.769531 -10.683594 C 2.464844 -10.683594 0.628906 -9.890625 0.628906 -7.824219 C 0.628906 -4.117188 5.921875 -5.507812 5.921875 -2.234375 C 5.921875 -0.628906 4.699219 0.164062 3.375 0.164062 C 1.953125 0.164062 1.15625 -0.3125 0.578125 -0.761719 Z M 0.578125 -0.761719 "/></g></g></g><g fill="#ffffff" fill-opacity="1"><g transform="translate(211.541111, 196.592685)"><g><path d="M 8.351562 -10.371094 L 8.351562 -3.96875 C 8.351562 -0.808594 6.75 -0.117188 4.863281 -0.117188 C 2.066406 -0.117188 1.917969 -2.648438 1.917969 -3.820312 L 1.917969 -10.371094 L 0.746094 -10.371094 L 0.746094 -3.820312 C 0.746094 -0.445312 2.664062 0.3125 4.613281 0.3125 C 7.261719 0.3125 8.632812 -1.089844 8.632812 -3.820312 L 8.632812 -10.371094 Z M 8.351562 -10.371094 "/></g></g></g><g fill="#ffffff" fill-opacity="1"><g transform="translate(231.633253, 196.592685)"><g><path d="M 0.792969 0.015625 L 1.96875 0.015625 L 1.96875 -10.371094 L 0.792969 -10.371094 Z M 3.257812 -5.988281 L 7.527344 -10.371094 L 7.144531 -10.371094 L 2.25 -5.34375 L 6.832031 0.015625 L 8.386719 0.015625 Z M 3.257812 -5.988281 "/></g></g></g></svg>