<svg id="visual" viewBox="0 0 900 600" width="900" height="600" xmlns="http://www.w3.org/2000/svg" xmlns:xlink="http://www.w3.org/1999/xlink" version="1.1"><rect x="0" y="0" width="900" height="600" fill="#e5e5f7"></rect><path d="M0 281L15 287.8C30 294.7 60 308.3 90 315.5C120 322.7 150 323.3 180 316C210 308.7 240 293.3 270 297C300 300.7 330 323.3 360 336.5C390 349.7 420 353.3 450 347.3C480 341.3 510 325.7 540 329.3C570 333 600 356 630 378.8C660 401.7 690 424.3 720 426.3C750 428.3 780 409.7 810 395.3C840 381 870 371 885 366L900 361L900 0L885 0C870 0 840 0 810 0C780 0 750 0 720 0C690 0 660 0 630 0C600 0 570 0 540 0C510 0 480 0 450 0C420 0 390 0 360 0C330 0 300 0 270 0C240 0 210 0 180 0C150 0 120 0 90 0C60 0 30 0 15 0L0 0Z" fill="#e5e5f7"></path><path d="M0 266L15 283.2C30 300.3 60 334.7 90 351.3C120 368 150 367 180 350.7C210 334.3 240 302.7 270 291.8C300 281 330 291 360 297.2C390 303.3 420 305.7 450 317.8C480 330 510 352 540 351.7C570 351.3 600 328.7 630 329.2C660 329.7 690 353.3 720 351.5C750 349.7 780 322.3 810 319.7C840 317 870 339 885 350L900 361L900 0L885 0C870 0 840 0 810 0C780 0 750 0 720 0C690 0 660 0 630 0C600 0 570 0 540 0C510 0 480 0 450 0C420 0 390 0 360 0C330 0 300 0 270 0C240 0 210 0 180 0C150 0 120 0 90 0C60 0 30 0 15 0L0 0Z" fill="#ebebf9"></path><path d="M0 154L15 166.3C30 178.7 60 203.3 90 209.3C120 215.3 150 202.7 180 207.2C210 211.7 240 233.3 270 246.2C300 259 330 263 360 246.7C390 230.3 420 193.7 450 181.7C480 169.7 510 182.3 540 191.3C570 200.3 600 205.7 630 213.5C660 221.3 690 231.7 720 245C750 258.3 780 274.7 810 273.7C840 272.7 870 254.3 885 245.2L900 236L900 0L885 0C870 0 840 0 810 0C780 0 750 0 720 0C690 0 660 0 630 0C600 0 570 0 540 0C510 0 480 0 450 0C420 0 390 0 360 0C330 0 300 0 270 0C240 0 210 0 180 0C150 0 120 0 90 0C60 0 30 0 15 0L0 0Z" fill="#f2f2fb"></path><path d="M0 182L15 176.7C30 171.3 60 160.7 90 148.8C120 137 150 124 180 125.2C210 126.3 240 141.7 270 139.7C300 137.7 330 118.3 360 117.8C390 117.3 420 135.7 450 143.8C480 152 510 150 540 143.8C570 137.7 600 127.3 630 137.8C660 148.3 690 179.7 720 193.3C750 207 780 203 810 203.3C840 203.7 870 208.3 885 210.7L900 213L900 0L885 0C870 0 840 0 810 0C780 0 750 0 720 0C690 0 660 0 630 0C600 0 570 0 540 0C510 0 480 0 450 0C420 0 390 0 360 0C330 0 300 0 270 0C240 0 210 0 180 0C150 0 120 0 90 0C60 0 30 0 15 0L0 0Z" fill="#f9f8fd"></path><path d="M0 44L15 40.3C30 36.7 60 29.3 90 26.7C120 24 150 26 180 32C210 38 240 48 270 55.2C300 62.3 330 66.7 360 68C390 69.3 420 67.7 450 72.3C480 77 510 88 540 93C570 98 600 97 630 83.5C660 70 690 44 720 39.8C750 35.7 780 53.3 810 54.7C840 56 870 41 885 33.5L900 26L900 0L885 0C870 0 840 0 810 0C780 0 750 0 720 0C690 0 660 0 630 0C600 0 570 0 540 0C510 0 480 0 450 0C420 0 390 0 360 0C330 0 300 0 270 0C240 0 210 0 180 0C150 0 120 0 90 0C60 0 30 0 15 0L0 0Z" fill="#ffffff"></path></svg>