<svg id="visual" viewBox="0 0 960 540" width="100%" height="100%" xmlns="http://www.w3.org/2000/svg" xmlns:xlink="http://www.w3.org/1999/xlink" version="1.1"><path d="M0 33L20 33C40 33 80 33 120 35.8C160 38.7 200 44.3 240 48C280 51.7 320 53.3 360 54.2C400 55 440 55 480 61.3C520 67.7 560 80.3 600 84.8C640 89.3 680 85.7 720 76.7C760 67.7 800 53.3 840 48C880 42.7 920 46.3 940 48.2L960 50L960 0L940 0C920 0 880 0 840 0C800 0 760 0 720 0C680 0 640 0 600 0C560 0 520 0 480 0C440 0 400 0 360 0C320 0 280 0 240 0C200 0 160 0 120 0C80 0 40 0 20 0L0 0Z" fill="#e5e5f7"></path><path d="M0 141L20 147.3C40 153.7 80 166.3 120 168.2C160 170 200 161 240 165.5C280 170 320 188 360 199.7C400 211.3 440 216.7 480 233.8C520 251 560 280 600 291.8C640 303.7 680 298.3 720 284.8C760 271.3 800 249.7 840 228.8C880 208 920 188 940 178L960 168L960 48L940 46.2C920 44.3 880 40.7 840 46C800 51.3 760 65.7 720 74.7C680 83.7 640 87.3 600 82.8C560 78.3 520 65.7 480 59.3C440 53 400 53 360 52.2C320 51.3 280 49.7 240 46C200 42.3 160 36.7 120 33.8C80 31 40 31 20 31L0 31Z" fill="#d1bfe7"></path><path d="M0 179L20 198C40 217 80 255 120 267.7C160 280.3 200 267.7 240 270.3C280 273 320 291 360 296.3C400 301.7 440 294.3 480 303.3C520 312.3 560 337.7 600 345.8C640 354 680 345 720 333.3C760 321.7 800 307.3 840 293.8C880 280.3 920 267.7 940 261.3L960 255L960 166L940 176C920 186 880 206 840 226.8C800 247.7 760 269.3 720 282.8C680 296.3 640 301.7 600 289.8C560 278 520 249 480 231.8C440 214.7 400 209.3 360 197.7C320 186 280 168 240 163.5C200 159 160 168 120 166.2C80 164.3 40 151.7 20 145.3L0 139Z" fill="#ca95cb"></path><path d="M0 379L20 387.2C40 395.3 80 411.7 120 421.5C160 431.3 200 434.7 240 440.8C280 447 320 456 360 453.3C400 450.7 440 436.3 480 439.2C520 442 560 462 600 469.2C640 476.3 680 470.7 720 462.5C760 454.3 800 443.7 840 436.5C880 429.3 920 425.7 940 423.8L960 422L960 253L940 259.3C920 265.7 880 278.3 840 291.8C800 305.3 760 319.7 720 331.3C680 343 640 352 600 343.8C560 335.7 520 310.3 480 301.3C440 292.3 400 299.7 360 294.3C320 289 280 271 240 268.3C200 265.7 160 278.3 120 265.7C80 253 40 215 20 196L0 177Z" fill="#c866a2"></path><path d="M0 541L20 541C40 541 80 541 120 541C160 541 200 541 240 541C280 541 320 541 360 541C400 541 440 541 480 541C520 541 560 541 600 541C640 541 680 541 720 541C760 541 800 541 840 541C880 541 920 541 940 541L960 541L960 420L940 421.8C920 423.7 880 427.3 840 434.5C800 441.7 760 452.3 720 460.5C680 468.7 640 474.3 600 467.2C560 460 520 440 480 437.2C440 434.3 400 448.7 360 451.3C320 454 280 445 240 438.8C200 432.7 160 429.3 120 419.5C80 409.7 40 393.3 20 385.2L0 377Z" fill="#c22e6d"></path></svg>